<svg width="618" height="712" viewBox="0 0 618 712" fill="none" xmlns="http://www.w3.org/2000/svg">
<path d="M0 15.5C0 7.21572 6.71573 0.5 15 0.5H603C611.284 0.5 618 7.21573 618 15.5V620.5C618 628.784 611.284 635.5 603 635.5H15C6.71573 635.5 0 628.784 0 620.5V15.5Z" fill="url(#paint0_linear_945_3)"/>
<path d="M234 124C234 115.716 240.716 109 249 109H368C376.284 109 383 115.716 383 124V170C383 178.284 376.284 185 368 185H249C240.716 185 234 178.284 234 170V124Z" fill="white"/>
<rect x="66" y="426" width="485" height="112" fill="white" fill-opacity="0.57"/>
<path d="M81.608 498V492.048H89.864V462.032H81.608V456.08H104.2V462.032H96.52V492.048H104.2V498H81.608ZM131.72 498V492.432L115.912 466.448H115.72V498H109.704V456.08H115.72L131.464 482.32H131.72V456.08H137.736V498H131.72ZM141.128 467.28C141.128 459.387 145.864 455.44 155.336 455.44C158.664 455.44 162.461 456.187 166.728 457.68L165.256 463.504C160.904 462.139 157.469 461.456 154.952 461.456C152.477 461.413 150.685 461.819 149.576 462.672C148.467 463.525 147.912 465.019 147.912 467.152C147.912 468.603 148.531 469.84 149.768 470.864C151.005 471.845 153.096 472.72 156.04 473.488C160.52 474.683 163.592 476.219 165.256 478.096C166.92 479.973 167.752 482.768 167.752 486.48C167.752 494.544 162.931 498.576 153.288 498.576C150.088 498.576 146.056 497.893 141.192 496.528L142.536 490.448C142.536 490.491 143.197 490.683 144.52 491.024C148.659 492.091 151.859 492.624 154.12 492.624C156.424 492.624 158.131 492.048 159.24 490.896C160.392 489.744 160.968 488.293 160.968 486.544C160.968 484.795 160.477 483.451 159.496 482.512C158.557 481.573 156.808 480.741 154.248 480.016C149.64 478.736 146.291 477.157 144.2 475.28C142.152 473.403 141.128 470.736 141.128 467.28ZM173.768 498V492.048H182.024V462.032H173.768V456.08H196.36V462.032H188.68V492.048H196.36V498H173.768ZM215.752 482.704C213.448 482.832 212.168 482.896 211.912 482.896H208.904V498H202.248V456.08H215.432C220.083 456.08 223.603 457.125 225.992 459.216C228.381 461.264 229.576 464.699 229.576 469.52C229.576 475.067 227.187 478.971 222.408 481.232C225.352 486.821 227.827 492.411 229.832 498H222.664C220.744 492.837 218.44 487.739 215.752 482.704ZM214.152 461.968H208.904V476.752H214.216C219.933 476.752 222.792 474.341 222.792 469.52C222.792 466.832 222.109 464.912 220.744 463.76C219.379 462.565 217.181 461.968 214.152 461.968ZM230.6 498L240.776 456.08H252.744L262.6 498H255.56L253.576 490H239.368L237.512 498H230.6ZM252.168 484.048L247.432 462.032H246.024L240.712 484.048H252.168ZM293.704 483.92V456.08H300.424V483.152C300.424 486.437 300.957 488.827 302.024 490.32C303.048 491.813 305.011 492.56 307.912 492.56C310.813 492.56 312.819 491.835 313.928 490.384C315.037 488.933 315.592 486.523 315.592 483.152V456.08H322.312V483.92C322.312 488.912 321.224 492.603 319.048 494.992C316.915 497.381 313.16 498.576 307.784 498.576C302.408 498.576 298.717 497.36 296.712 494.928C294.707 492.496 293.704 488.827 293.704 483.92ZM324.104 498V456.08H330.44L338.504 477.968H339.016L347.08 456.08H353.416V498H347.4L347.592 469.648H347.336L341.896 483.792H335.624L330.184 469.648H329.928L330.12 498H324.104ZM394.12 498L384.84 456.08H391.88L399.752 492.048H401.096L408.648 456.08H415.496L406.536 498H394.12ZM414.92 498L425.096 456.08H437.064L446.92 498H439.88L437.896 490H423.688L421.832 498H414.92ZM436.488 484.048L431.752 462.032H430.344L425.032 484.048H436.488ZM473.736 491.984V498H449.992V456.08H456.648V491.984H473.736ZM492.424 498.64C487.219 498.64 483.507 496.848 481.288 493.264C479.069 489.68 477.96 484.197 477.96 476.816C477.96 469.392 479.091 463.973 481.352 460.56C483.656 457.147 487.368 455.44 492.488 455.44C497.651 455.44 501.32 457.125 503.496 460.496C505.672 463.867 506.76 469.349 506.76 476.944C506.76 484.496 505.672 490 503.496 493.456C501.32 496.912 497.629 498.64 492.424 498.64ZM492.296 492.624C495.283 492.624 497.309 491.536 498.376 489.36C499.443 487.141 499.976 482.96 499.976 476.816C499.976 470.672 499.443 466.576 498.376 464.528C497.352 462.48 495.389 461.456 492.488 461.456C489.629 461.456 487.624 462.565 486.472 464.784C485.32 467.003 484.744 470.971 484.744 476.688C484.744 482.363 485.256 486.437 486.28 488.912C487.304 491.387 489.309 492.624 492.296 492.624ZM522.952 482.704C520.648 482.832 519.368 482.896 519.112 482.896H516.104V498H509.448V456.08H522.632C527.283 456.08 530.803 457.125 533.192 459.216C535.581 461.264 536.776 464.699 536.776 469.52C536.776 475.067 534.387 478.971 529.608 481.232C532.552 486.821 535.027 492.411 537.032 498H529.864C527.944 492.837 525.64 487.739 522.952 482.704ZM521.352 461.968H516.104V476.752H521.416C527.133 476.752 529.992 474.341 529.992 469.52C529.992 466.832 529.309 464.912 527.944 463.76C526.579 462.565 524.381 461.968 521.352 461.968Z" fill="black"/>
<rect x="418" y="283" width="133" height="111.809" fill="white" fill-opacity="0.8"/>
<path d="M66 285H199V396.809H66V285Z" fill="white" fill-opacity="0.8"/>
<path d="M242 283H375V394.809H242V283Z" fill="white" fill-opacity="0.8"/>
<path d="M264.432 169V127.08H274.416C277.787 127.08 280.496 127.357 282.544 127.912C284.635 128.467 286.405 129.512 287.856 131.048C289.307 132.584 290.331 134.717 290.928 137.448C291.525 140.136 291.824 143.976 291.824 148.968C291.824 153.917 291.205 157.907 289.968 160.936C288.773 163.965 286.96 166.077 284.528 167.272C282.096 168.424 278.683 169 274.288 169H264.432ZM282.48 160.488C283.461 159.379 284.123 157.864 284.464 155.944C284.848 153.981 285.04 151.336 285.04 148.008C285.04 144.637 284.891 141.992 284.592 140.072C284.293 138.152 283.653 136.637 282.672 135.528C281.733 134.376 280.56 133.651 279.152 133.352C277.744 133.011 275.739 132.84 273.136 132.84H271.088V163.24H273.008C275.483 163.24 277.424 163.069 278.832 162.728C280.283 162.344 281.499 161.597 282.48 160.488ZM308.784 169.64C303.579 169.64 299.867 167.848 297.648 164.264C295.429 160.68 294.32 155.197 294.32 147.816C294.32 140.392 295.451 134.973 297.712 131.56C300.016 128.147 303.728 126.44 308.848 126.44C314.011 126.44 317.68 128.125 319.856 131.496C322.032 134.867 323.12 140.349 323.12 147.944C323.12 155.496 322.032 161 319.856 164.456C317.68 167.912 313.989 169.64 308.784 169.64ZM308.656 163.624C311.643 163.624 313.669 162.536 314.736 160.36C315.803 158.141 316.336 153.96 316.336 147.816C316.336 141.672 315.803 137.576 314.736 135.528C313.712 133.48 311.749 132.456 308.848 132.456C305.989 132.456 303.984 133.565 302.832 135.784C301.68 138.003 301.104 141.971 301.104 147.688C301.104 153.363 301.616 157.437 302.64 159.912C303.664 162.387 305.669 163.624 308.656 163.624ZM327.28 169V127.08H351.792V133.096H333.936V144.744H350.064V150.504H333.936V162.984H351.984V169H327.28Z" fill="black"/>
<path d="M437.872 341.704C435.568 341.832 434.288 341.896 434.032 341.896H431.024V357H424.368V315.08H437.552C442.203 315.08 445.723 316.125 448.112 318.216C450.501 320.264 451.696 323.699 451.696 328.52C451.696 334.067 449.307 337.971 444.528 340.232C447.472 345.821 449.947 351.411 451.952 357H444.784C442.864 351.837 440.56 346.739 437.872 341.704ZM436.272 320.968H431.024V335.752H436.336C442.053 335.752 444.912 333.341 444.912 328.52C444.912 325.832 444.229 323.912 442.864 322.76C441.499 321.565 439.301 320.968 436.272 320.968ZM481.584 345.8C481.584 352.755 478 356.637 470.832 357.448V362.888H464.432V357.448C461.659 357.192 458.565 356.552 455.152 355.528L456.496 349.896C464.133 352.413 469.445 352.733 472.432 350.856C474.053 349.832 474.885 348.275 474.928 346.184C474.971 344.051 474.459 342.579 473.392 341.768C472.368 340.957 469.851 339.976 465.84 338.824C461.872 337.672 459.077 336.157 457.456 334.28C455.877 332.36 455.088 329.779 455.088 326.536C455.088 323.293 456.133 320.776 458.224 318.984C460.315 317.192 462.555 316.211 464.944 316.04V310.6H471.408V315.848C473.968 315.933 477.061 316.637 480.688 317.96L479.216 323.592C474.992 322.184 471.536 321.48 468.848 321.48C468.805 321.48 468.72 321.48 468.592 321.48C464.027 321.437 461.744 323.208 461.744 326.792C461.744 329.779 464.261 331.933 469.296 333.256C471.472 333.853 473.243 334.429 474.608 334.984C475.931 335.496 477.168 336.221 478.32 337.16C480.496 338.867 481.584 341.747 481.584 345.8ZM500.272 329.8C504.709 329.8 507.995 331.08 510.128 333.64C512.304 336.157 513.392 339.507 513.392 343.688C513.392 347.869 512.027 351.261 509.296 353.864C506.565 356.424 503.131 357.704 498.992 357.704C494.853 357.704 490.395 356.723 485.616 354.76L487.664 349.064C492.485 350.771 496.091 351.624 498.48 351.624C500.912 351.624 502.853 350.92 504.304 349.512C505.755 348.104 506.48 346.184 506.48 343.752C506.48 341.32 505.904 339.421 504.752 338.056C503.6 336.691 501.808 336.008 499.376 336.008C496.987 336.008 494.64 336.904 492.336 338.696L487.984 337.416L488.624 316.424H512.368V322.312H494.448L494.128 331.4C496.005 330.333 498.053 329.8 500.272 329.8ZM516.72 336.648C516.72 329.309 517.829 323.997 520.048 320.712C522.309 317.427 525.659 315.784 530.096 315.784C534.576 315.784 537.925 317.427 540.144 320.712C542.405 323.997 543.536 329.309 543.536 336.648C543.536 343.944 542.405 349.277 540.144 352.648C537.883 355.976 534.533 357.64 530.096 357.64C525.659 357.64 522.309 355.976 520.048 352.648C517.829 349.277 516.72 343.944 516.72 336.648ZM530.096 351.816C532.443 351.816 534.128 350.749 535.152 348.616C536.219 346.483 536.752 342.493 536.752 336.648C536.752 330.76 536.219 326.792 535.152 324.744C534.128 322.696 532.443 321.672 530.096 321.672C527.749 321.672 526.085 322.696 525.104 324.744C524.123 326.749 523.632 330.248 523.632 335.24C523.632 340.189 523.867 343.795 524.336 346.056C524.848 348.275 525.552 349.789 526.448 350.6C527.344 351.411 528.56 351.816 530.096 351.816Z" fill="black"/>
<path d="M101.872 341.704C99.568 341.832 98.288 341.896 98.032 341.896H95.024V357H88.368V315.08H101.552C106.203 315.08 109.723 316.125 112.112 318.216C114.501 320.264 115.696 323.699 115.696 328.52C115.696 334.067 113.307 337.971 108.528 340.232C111.472 345.821 113.947 351.411 115.952 357H108.784C106.864 351.837 104.56 346.739 101.872 341.704ZM100.272 320.968H95.024V335.752H100.336C106.053 335.752 108.912 333.341 108.912 328.52C108.912 325.832 108.229 323.912 106.864 322.76C105.499 321.565 103.301 320.968 100.272 320.968ZM145.584 345.8C145.584 352.755 142 356.637 134.832 357.448V362.888H128.432V357.448C125.659 357.192 122.565 356.552 119.152 355.528L120.496 349.896C128.133 352.413 133.445 352.733 136.432 350.856C138.053 349.832 138.885 348.275 138.928 346.184C138.971 344.051 138.459 342.579 137.392 341.768C136.368 340.957 133.851 339.976 129.84 338.824C125.872 337.672 123.077 336.157 121.456 334.28C119.877 332.36 119.088 329.779 119.088 326.536C119.088 323.293 120.133 320.776 122.224 318.984C124.315 317.192 126.555 316.211 128.944 316.04V310.6H135.408V315.848C137.968 315.933 141.061 316.637 144.688 317.96L143.216 323.592C138.992 322.184 135.536 321.48 132.848 321.48C132.805 321.48 132.72 321.48 132.592 321.48C128.027 321.437 125.744 323.208 125.744 326.792C125.744 329.779 128.261 331.933 133.296 333.256C135.472 333.853 137.243 334.429 138.608 334.984C139.931 335.496 141.168 336.221 142.32 337.16C144.496 338.867 145.584 341.747 145.584 345.8ZM164.272 329.8C168.709 329.8 171.995 331.08 174.128 333.64C176.304 336.157 177.392 339.507 177.392 343.688C177.392 347.869 176.027 351.261 173.296 353.864C170.565 356.424 167.131 357.704 162.992 357.704C158.853 357.704 154.395 356.723 149.616 354.76L151.664 349.064C156.485 350.771 160.091 351.624 162.48 351.624C164.912 351.624 166.853 350.92 168.304 349.512C169.755 348.104 170.48 346.184 170.48 343.752C170.48 341.32 169.904 339.421 168.752 338.056C167.6 336.691 165.808 336.008 163.376 336.008C160.987 336.008 158.64 336.904 156.336 338.696L151.984 337.416L152.624 316.424H176.368V322.312H158.448L158.128 331.4C160.005 330.333 162.053 329.8 164.272 329.8Z" fill="black"/>
<path d="M261.872 341.704C259.568 341.832 258.288 341.896 258.032 341.896H255.024V357H248.368V315.08H261.552C266.203 315.08 269.723 316.125 272.112 318.216C274.501 320.264 275.696 323.699 275.696 328.52C275.696 334.067 273.307 337.971 268.528 340.232C271.472 345.821 273.947 351.411 275.952 357H268.784C266.864 351.837 264.56 346.739 261.872 341.704ZM260.272 320.968H255.024V335.752H260.336C266.053 335.752 268.912 333.341 268.912 328.52C268.912 325.832 268.229 323.912 266.864 322.76C265.499 321.565 263.301 320.968 260.272 320.968ZM305.584 345.8C305.584 352.755 302 356.637 294.832 357.448V362.888H288.432V357.448C285.659 357.192 282.565 356.552 279.152 355.528L280.496 349.896C288.133 352.413 293.445 352.733 296.432 350.856C298.053 349.832 298.885 348.275 298.928 346.184C298.971 344.051 298.459 342.579 297.392 341.768C296.368 340.957 293.851 339.976 289.84 338.824C285.872 337.672 283.077 336.157 281.456 334.28C279.877 332.36 279.088 329.779 279.088 326.536C279.088 323.293 280.133 320.776 282.224 318.984C284.315 317.192 286.555 316.211 288.944 316.04V310.6H295.408V315.848C297.968 315.933 301.061 316.637 304.688 317.96L303.216 323.592C298.992 322.184 295.536 321.48 292.848 321.48C292.805 321.48 292.72 321.48 292.592 321.48C288.027 321.437 285.744 323.208 285.744 326.792C285.744 329.779 288.261 331.933 293.296 333.256C295.472 333.853 297.243 334.429 298.608 334.984C299.931 335.496 301.168 336.221 302.32 337.16C304.496 338.867 305.584 341.747 305.584 345.8ZM335.856 327.624C335.856 330.013 335.323 332.211 334.256 334.216C333.232 336.221 331.931 337.928 330.352 339.336C328.816 340.744 327.237 342.045 325.616 343.24C321.477 346.355 319.024 348.872 318.256 350.792H337.392V357H310.832V351.304C311.685 349.171 312.923 347.187 314.544 345.352C316.123 343.475 317.723 341.896 319.344 340.616L324.08 336.904C327.493 334.088 329.179 330.995 329.136 327.624C329.136 325.747 328.581 324.296 327.472 323.272C326.363 322.205 324.955 321.672 323.248 321.672C321.584 321.672 320.048 322.035 318.64 322.76C317.275 323.443 315.525 324.531 313.392 326.024L310.128 321.224C312.091 319.773 314.245 318.515 316.592 317.448C318.939 316.381 321.008 315.848 322.8 315.848C326.555 315.848 329.669 316.851 332.144 318.856C334.619 320.819 335.856 323.741 335.856 327.624ZM340.72 336.648C340.72 329.309 341.829 323.997 344.048 320.712C346.309 317.427 349.659 315.784 354.096 315.784C358.576 315.784 361.925 317.427 364.144 320.712C366.405 323.997 367.536 329.309 367.536 336.648C367.536 343.944 366.405 349.277 364.144 352.648C361.883 355.976 358.533 357.64 354.096 357.64C349.659 357.64 346.309 355.976 344.048 352.648C341.829 349.277 340.72 343.944 340.72 336.648ZM354.096 351.816C356.443 351.816 358.128 350.749 359.152 348.616C360.219 346.483 360.752 342.493 360.752 336.648C360.752 330.76 360.219 326.792 359.152 324.744C358.128 322.696 356.443 321.672 354.096 321.672C351.749 321.672 350.085 322.696 349.104 324.744C348.123 326.749 347.632 330.248 347.632 335.24C347.632 340.189 347.867 343.795 348.336 346.056C348.848 348.275 349.552 349.789 350.448 350.6C351.344 351.411 352.56 351.816 354.096 351.816Z" fill="black"/>
<defs>
<linearGradient id="paint0_linear_945_3" x1="309" y1="-350" x2="309" y2="285" gradientUnits="userSpaceOnUse">
<stop stop-color="#893326"/>
<stop offset="1" stop-color="#975B5B"/>
</linearGradient>
</defs>
</svg>
